<svg width="14" height="17" viewBox="0 0 14 17" fill="none" xmlns="http://www.w3.org/2000/svg">
<g id="Apple logo">
<path d="M10.9557 9.29488C10.9717 8.0494 11.6406 6.87091 12.7017 6.21856C12.0323 5.26255 10.9111 4.65641 9.74461 4.61991C8.50044 4.48932 7.29427 5.3644 6.66026 5.3644C6.01399 5.3644 5.03783 4.63288 3.98668 4.6545C2.61654 4.69877 1.33923 5.47775 0.672636 6.67562C-0.760289 9.1565 0.308544 12.8026 1.68117 14.8079C2.36792 15.7899 3.17053 16.8868 4.22074 16.8479C5.24843 16.8053 5.63225 16.1926 6.87276 16.1926C8.10176 16.1926 8.46186 16.8479 9.53338 16.8232C10.6361 16.8053 11.3309 15.8368 11.9936 14.8456C12.487 14.1459 12.8667 13.3726 13.1186 12.5543C11.8227 12.0062 10.9572 10.702 10.9557 9.29488Z" fill="#CC7C2E" style="fill:#CC7C2E;fill:color(display-p3 0.8000 0.4863 0.1804);fill-opacity:1;"/>
<path d="M8.93178 3.30109C9.53305 2.57928 9.82927 1.65153 9.75754 0.714844C8.83893 0.811326 7.9904 1.25036 7.381 1.94447C6.7851 2.62265 6.47499 3.53408 6.53361 4.43497C7.45255 4.44443 8.35594 4.01729 8.93178 3.30109Z" fill="#CC7C2E" style="fill:#CC7C2E;fill:color(display-p3 0.8000 0.4863 0.1804);fill-opacity:1;"/>
</g>
</svg>
