<svg width="34" height="34" viewBox="0 0 34 34" fill="none" xmlns="http://www.w3.org/2000/svg">
<g id="facebook.svg" clip-path="url(#clip0_8475_40062)">
<path id="Vector" d="M33.2093 17.3859C33.2093 8.21541 25.7751 0.78125 16.6047 0.78125C7.43416 0.78125 0 8.21541 0 17.3859C0 26.5564 7.43416 33.9906 16.6047 33.9906C25.7751 33.9906 33.2093 26.5564 33.2093 17.3859Z" fill="white" style="fill:white;fill:white;fill-opacity:1;"/>
<path id="Vector_2" d="M17.7219 24.5021C21.165 23.9841 23.8047 21.0132 23.8047 17.4258C23.8047 13.4735 20.6007 10.2695 16.6484 10.2695C12.6962 10.2695 9.49219 13.4735 9.49219 17.4258C9.49219 21.0132 12.132 23.9841 15.5751 24.5021V19.5726H14.5016C13.9088 19.5726 13.4282 19.0921 13.4282 18.4993C13.4282 17.9064 13.9088 17.4258 14.5016 17.4258H15.5751V15.9946C15.5751 14.6112 16.6964 13.4899 18.0798 13.4899H18.4375C19.0304 13.4899 19.511 13.9705 19.511 14.5633C19.511 15.1562 19.0304 15.6367 18.4375 15.6367H18.0798C17.8822 15.6367 17.7219 15.7969 17.7219 15.9946V17.4258H18.7953C19.3882 17.4258 19.8688 17.9064 19.8688 18.4993C19.8688 19.0921 19.3882 19.5726 18.7953 19.5726H17.7219V24.5021Z" fill="#CC7C2E" style="fill:#CC7C2E;fill:color(display-p3 0.8000 0.4863 0.1804);fill-opacity:1;"/>
</g>
<defs>
<clipPath id="clip0_8475_40062">
<rect width="33.2093" height="33.2093" fill="white" style="fill:white;fill:white;fill-opacity:1;" transform="translate(0 0.78125)"/>
</clipPath>
</defs>
</svg>
