<svg width="35" height="34" viewBox="0 0 35 34" fill="none" xmlns="http://www.w3.org/2000/svg">
<g id="instagram.svg" clip-path="url(#clip0_8475_40071)">
<path id="Vector" d="M34.139 17.3859C34.139 8.21541 26.7048 0.78125 17.5343 0.78125C8.36384 0.78125 0.929688 8.21541 0.929688 17.3859C0.929688 26.5564 8.36384 33.9906 17.5343 33.9906C26.7048 33.9906 34.139 26.5564 34.139 17.3859Z" fill="white" style="fill:white;fill:white;fill-opacity:1;"/>
<path id="Vector_2" d="M20.6932 10.2695C22.8766 10.2695 24.6466 12.0396 24.6466 14.223V20.5486C24.6466 22.732 22.8766 24.5021 20.6932 24.5021H14.3676C12.1841 24.5021 10.4141 22.732 10.4141 20.5486V14.223C10.4141 12.0396 12.1841 10.2695 14.3676 10.2695H20.6932ZM17.5303 14.223C15.7837 14.223 14.3676 15.639 14.3676 17.3858C14.3676 19.1325 15.7837 20.5486 17.5303 20.5486C19.2772 20.5486 20.6932 19.1325 20.6932 17.3858C20.6932 15.639 19.2772 14.223 17.5303 14.223ZM17.5303 15.8045C18.4037 15.8045 19.1118 16.5124 19.1118 17.3858C19.1118 18.2592 18.4037 18.9672 17.5303 18.9672C16.6569 18.9672 15.949 18.2592 15.949 17.3858C15.949 16.5124 16.6569 15.8045 17.5303 15.8045ZM21.0885 13.0369C20.6518 13.0369 20.2979 13.391 20.2979 13.8277C20.2979 14.2644 20.6518 14.6184 21.0885 14.6184C21.5252 14.6184 21.8792 14.2644 21.8792 13.8277C21.8792 13.391 21.5252 13.0369 21.0885 13.0369Z" fill="#CC7C2E" style="fill:#CC7C2E;fill:color(display-p3 0.8000 0.4863 0.1804);fill-opacity:1;"/>
</g>
<defs>
<clipPath id="clip0_8475_40071">
<rect width="33.2093" height="33.2093" fill="white" style="fill:white;fill:white;fill-opacity:1;" transform="translate(0.929688 0.78125)"/>
</clipPath>
</defs>
</svg>
