<svg width="34" height="34" viewBox="0 0 34 34" fill="none" xmlns="http://www.w3.org/2000/svg">
<g id="linkedin.svg" clip-path="url(#clip0_8475_40089)">
<path id="Vector" d="M33.9984 17.3859C33.9984 8.21541 26.5642 0.78125 17.3937 0.78125C8.22322 0.78125 0.789062 8.21541 0.789062 17.3859C0.789062 26.5564 8.22322 33.9906 17.3937 33.9906C26.5642 33.9906 33.9984 26.5564 33.9984 17.3859Z" fill="white" style="fill:white;fill:white;fill-opacity:1;"/>
<path id="Vector_2" fill-rule="evenodd" clip-rule="evenodd" d="M10.2813 11.4586C10.2813 11.1432 10.4065 10.8408 10.6295 10.6178C10.8525 10.3948 11.155 10.2695 11.4703 10.2695H23.3235C23.4798 10.2693 23.6346 10.2998 23.7791 10.3595C23.9235 10.4192 24.0547 10.5067 24.1653 10.6172C24.2759 10.7276 24.3635 10.8588 24.4233 11.0032C24.4832 11.1476 24.5139 11.3023 24.5138 11.4586V23.3118C24.514 23.4681 24.4833 23.6229 24.4237 23.7673C24.3639 23.9118 24.2762 24.0431 24.1658 24.1536C24.0553 24.2642 23.9241 24.3518 23.7796 24.4116C23.6352 24.4715 23.4804 24.5022 23.3241 24.5021H11.4703C11.3141 24.5021 11.1594 24.4714 11.0151 24.4115C10.8708 24.3517 10.7397 24.2641 10.6293 24.1536C10.5189 24.0431 10.4313 23.9119 10.3716 23.7676C10.3119 23.6232 10.2812 23.4686 10.2813 23.3124V11.4586ZM15.9147 15.6961H17.8419V16.6639C18.1202 16.1075 18.8318 15.6067 19.9012 15.6067C21.9514 15.6067 22.4372 16.715 22.4372 18.7482V22.5148H20.3624V19.2115C20.3624 18.0534 20.0843 17.4 19.3779 17.4C18.3977 17.4 17.9902 18.1046 17.9902 19.2115V22.5148H15.9147V15.6961ZM12.3566 22.426H14.4321V15.6067H12.3566V22.426ZM14.7289 13.3825C14.7328 13.5602 14.7013 13.7369 14.6359 13.9023C14.5707 14.0676 14.473 14.2182 14.3487 14.3453C14.2244 14.4723 14.076 14.5732 13.9122 14.6421C13.7483 14.711 13.5724 14.7466 13.3946 14.7466C13.217 14.7466 13.0409 14.711 12.8771 14.6421C12.7132 14.5732 12.5648 14.4723 12.4405 14.3453C12.3163 14.2182 12.2186 14.0676 12.1533 13.9023C12.088 13.7369 12.0564 13.5602 12.0603 13.3825C12.068 13.0337 12.212 12.7019 12.4613 12.4579C12.7107 12.2139 13.0458 12.0773 13.3946 12.0773C13.7436 12.0773 14.0785 12.2139 14.3279 12.4579C14.5773 12.7019 14.7212 13.0337 14.7289 13.3825Z" fill="#CC7C2E" style="fill:#CC7C2E;fill:color(display-p3 0.8000 0.4863 0.1804);fill-opacity:1;"/>
</g>
<defs>
<clipPath id="clip0_8475_40089">
<rect width="33.2093" height="33.2093" fill="white" style="fill:white;fill:white;fill-opacity:1;" transform="translate(0.789062 0.78125)"/>
</clipPath>
</defs>
</svg>
