<svg width="35" height="34" viewBox="0 0 35 34" fill="none" xmlns="http://www.w3.org/2000/svg">
<g id="twitter.svg" clip-path="url(#clip0_8475_40080)">
<path id="Vector" d="M34.0687 17.3859C34.0687 8.21541 26.6345 0.78125 17.464 0.78125C8.29353 0.78125 0.859375 8.21541 0.859375 17.3859C0.859375 26.5564 8.29353 33.9906 17.464 33.9906C26.6345 33.9906 34.0687 26.5564 34.0687 17.3859Z" fill="white" style="fill:white;fill:white;fill-opacity:1;"/>
<path id="Vector_2" d="M11.6858 11.0936C11.9949 11.0575 12.2984 11.1959 12.474 11.4527C13.7091 13.26 15.1926 14.0119 16.8389 14.183C16.9197 13.4787 17.1097 12.7829 17.4669 12.1703C17.9909 11.2714 18.8432 10.6097 20.0605 10.3652C21.7428 10.0273 23.0238 10.6365 23.7669 11.3826L25.267 11.1022C25.5875 11.0423 25.9136 11.1738 26.1027 11.4393C26.2919 11.7047 26.3098 12.0558 26.1485 12.3391L24.709 14.8691C24.8403 18.5205 23.8255 21.0686 21.6622 22.8242C20.5146 23.7555 18.8725 24.2836 17.0699 24.4467C15.2533 24.6111 13.1997 24.4123 11.1585 23.8162C10.8003 23.7116 10.5546 23.3827 10.5559 23.0097C10.5573 22.6366 10.8053 22.3093 11.1641 22.2073C12.1907 21.9153 12.972 21.6629 13.6783 21.2222C12.675 20.6894 11.9357 19.9931 11.4125 19.1992C10.6853 18.0957 10.4156 16.8655 10.3621 15.7561C10.3085 14.6466 10.4688 13.619 10.6377 12.8775C10.7338 12.4553 10.8461 12.0312 11.0008 11.626C11.1132 11.334 11.3768 11.1296 11.6858 11.0936Z" fill="#CC7C2E" style="fill:#CC7C2E;fill:color(display-p3 0.8000 0.4863 0.1804);fill-opacity:1;"/>
</g>
<defs>
<clipPath id="clip0_8475_40080">
<rect width="33.2093" height="33.2093" fill="white" style="fill:white;fill:white;fill-opacity:1;" transform="translate(0.859375 0.78125)"/>
</clipPath>
</defs>
</svg>
